<?xml version="1.0" encoding="iso-8859-1"?>
<!-- Generator: Adobe Illustrator 17.0.1, SVG Export Plug-In . SVG Version: 6.00 Build 0)  -->
<!DOCTYPE svg PUBLIC "-//W3C//DTD SVG 1.1//EN" "http://www.w3.org/Graphics/SVG/1.1/DTD/svg11.dtd">
<svg version="1.1" id="Layer_1" xmlns="http://www.w3.org/2000/svg" xmlns:xlink="http://www.w3.org/1999/xlink" x="0px" y="0px"
	 width="64px" height="64px" viewBox="0 0 64 64" style="enable-background:new 0 0 64 64;" xml:space="preserve">
<g id="icon-m-document">
	<path style="fill:#FFFFFF;" d="M43.767,19.767c0,1.1-0.9,2-2,2h-20c-1.1,0-2-0.9-2-2l0,0c0-1.1,0.9-2,2-2h20
		C42.867,17.767,43.767,18.667,43.767,19.767L43.767,19.767z"/>
	<path style="fill:#FFFFFF;" d="M43.767,27.767c0,1.1-0.9,2-2,2h-20c-1.1,0-2-0.9-2-2l0,0c0-1.1,0.9-2,2-2h20
		C42.867,25.767,43.767,26.667,43.767,27.767L43.767,27.767z"/>
	<rect id="icon-m-document_1_" style="opacity:0;fill:#FFFFFF;" width="64" height="64"/>
	<path style="opacity:0.5;fill:#FFFFFF;" d="M50.5,51.5c0,2.209-1.791,4-4,4h-30c-2.209,0-4-1.791-4-4v-40c0-2.209,1.791-4,4-4h30
		c2.209,0,4,1.791,4,4V51.5z"/>
	<path style="fill:#FFFFFF;" d="M43.767,35.767c0,1.1-0.9,2-2,2h-20c-1.1,0-2-0.9-2-2l0,0c0-1.1,0.9-2,2-2h20
		C42.867,33.767,43.767,34.667,43.767,35.767L43.767,35.767z"/>
	<path style="fill:#FFFFFF;" d="M36.423,43.767c0,1.1-0.9,2-2,2H21.767c-1.1,0-2-0.9-2-2l0,0c0-1.1,0.9-2,2-2h12.656
		C35.523,41.767,36.423,42.667,36.423,43.767L36.423,43.767z"/>
</g>
</svg>
