<?xml version="1.0" encoding="UTF-8" standalone="no"?>
<!-- Generator: Adobe Illustrator 17.0.1, SVG Export Plug-In . SVG Version: 6.00 Build 0)  -->

<svg
   xmlns:dc="http://purl.org/dc/elements/1.1/"
   xmlns:cc="http://creativecommons.org/ns#"
   xmlns:rdf="http://www.w3.org/1999/02/22-rdf-syntax-ns#"
   xmlns:svg="http://www.w3.org/2000/svg"
   xmlns="http://www.w3.org/2000/svg"
   xmlns:sodipodi="http://sodipodi.sourceforge.net/DTD/sodipodi-0.dtd"
   xmlns:inkscape="http://www.inkscape.org/namespaces/inkscape"
   version="1.1"
   id="Layer_1"
   x="0px"
   y="0px"
   width="32px"
   height="32px"
   viewBox="0 0 32 32"
   style="enable-background:new 0 0 32 32;"
   xml:space="preserve"
   sodipodi:docname="icon-s-insecure.svg"
   inkscape:version="0.92.3 (2405546, 2018-03-11)"><metadata
   id="metadata17"><rdf:RDF><cc:Work
       rdf:about=""><dc:format>image/svg+xml</dc:format><dc:type
         rdf:resource="http://purl.org/dc/dcmitype/StillImage" /><dc:title></dc:title></cc:Work></rdf:RDF></metadata><defs
   id="defs15" /><sodipodi:namedview
   pagecolor="#ffffff"
   bordercolor="#666666"
   borderopacity="1"
   objecttolerance="10"
   gridtolerance="10"
   guidetolerance="10"
   inkscape:pageopacity="0"
   inkscape:pageshadow="2"
   inkscape:window-width="2560"
   inkscape:window-height="1543"
   id="namedview13"
   showgrid="false"
   inkscape:pagecheckerboard="true"
   inkscape:zoom="7.375"
   inkscape:cx="12.52309"
   inkscape:cy="27.78712"
   inkscape:window-x="0"
   inkscape:window-y="28"
   inkscape:window-maximized="1"
   inkscape:current-layer="Layer_1" />
<g
   id="icon-s-secure"
   style="opacity:0.68736617">
	<rect
   id="icon-s-secure_1_"
   style="opacity:0;fill:#FFFFFF"
   width="32"
   height="32" />
	<g
   id="g9"
   style="">
		<path
   style="fill:#FFFFFF"
   d="M27.976,27.289c0,0.941-0.77,1.711-1.711,1.711H5.735c-0.941,0-1.711-0.77-1.711-1.711v-12.83    c0-0.941,0.77-1.711,1.711-1.711h20.53c0.941,0,1.711,0.77,1.711,1.711V27.289z"
   id="path3" />
		<g
   id="g7"
   style="">
			<path
   style="opacity:0.6;fill:#FFFFFF"
   d="M16,1.374c-5.088,0-9.212,3.949-9.212,9.212v3.788h3.947v-3.788     c0-3.947,2.361-5.264,5.265-5.264c2.903,0,5.264,1.316,5.264,5.264v3.788h3.949v-3.788C25.212,5.323,21.089,1.374,16,1.374z"
   id="path5" />
		</g>
	</g>
</g>
<path
   style="fill:#ffffff;fill-rule:evenodd;stroke:#ffffff;stroke-width:1.4;stroke-linecap:round;stroke-linejoin:miter;stroke-opacity:1;stroke-miterlimit:4;stroke-dasharray:none"
   d="M 31.220773,0.77922709 0.7792268,31.220773"
   id="path824"
   inkscape:connector-curvature="0" /></svg>