<?xml version="1.0" encoding="iso-8859-1"?>
<!-- Generator: Adobe Illustrator 17.0.1, SVG Export Plug-In . SVG Version: 6.00 Build 0)  -->
<!DOCTYPE svg PUBLIC "-//W3C//DTD SVG 1.1//EN" "http://www.w3.org/Graphics/SVG/1.1/DTD/svg11.dtd">
<svg version="1.1" id="Layer_1" xmlns="http://www.w3.org/2000/svg" xmlns:xlink="http://www.w3.org/1999/xlink" x="0px" y="0px"
	 width="32px" height="32px" viewBox="0 0 32 32" style="enable-background:new 0 0 32 32;" xml:space="preserve">
<g id="icon-s-secure">
	<rect id="icon-s-secure_1_" style="opacity:0;fill:#FFFFFF;" width="32" height="32"/>
	<g>
		<path style="fill:#FFFFFF;" d="M27.976,27.289c0,0.941-0.77,1.711-1.711,1.711H5.735c-0.941,0-1.711-0.77-1.711-1.711v-12.83
			c0-0.941,0.77-1.711,1.711-1.711h20.53c0.941,0,1.711,0.77,1.711,1.711V27.289z"/>
		<g>
			<path style="opacity:0.6;fill:#FFFFFF;" d="M16,1.374c-5.088,0-9.212,3.949-9.212,9.212v3.788h3.947v-3.788
				c0-3.947,2.361-5.264,5.265-5.264c2.903,0,5.264,1.316,5.264,5.264v3.788h3.949v-3.788C25.212,5.323,21.089,1.374,16,1.374z"/>
		</g>
	</g>
</g>
</svg>
