<?xml version="1.0" encoding="iso-8859-1"?>
<!-- Generator: Adobe Illustrator 17.0.1, SVG Export Plug-In . SVG Version: 6.00 Build 0)  -->
<!DOCTYPE svg PUBLIC "-//W3C//DTD SVG 1.1//EN" "http://www.w3.org/Graphics/SVG/1.1/DTD/svg11.dtd">
<svg version="1.1" id="Layer_1" xmlns="http://www.w3.org/2000/svg" xmlns:xlink="http://www.w3.org/1999/xlink" x="0px" y="0px"
	 width="64px" height="64px" viewBox="0 0 64 64" style="enable-background:new 0 0 64 64;" xml:space="preserve">
<g id="icon-m-add_2_">
	<rect id="icon-m-add_3_" style="opacity:0;fill:#FFFFFF;" width="64" height="64"/>
	<g>
		<circle style="opacity:0.2;fill:#FFFFFF;" cx="32" cy="32" r="24"/>
		<g style="opacity:0.6;">
			<path style="fill:#FFFFFF;" d="M32,47c-0.552,0-1-0.447-1-1v-8.999c0-3.309,2.691-6,6-6h9c0.553,0,1,0.448,1,1s-0.447,1-1,1h-9
				c-2.206,0-4,1.794-4,4V46C33,46.553,32.552,47,32,47z"/>
		</g>
		<path style="fill:#FFFFFF;" d="M27,33.001h-9c-0.552,0-1-0.448-1-1s0.448-1,1-1h9c2.206,0,4-1.794,4-4v-9c0-0.552,0.448-1,1-1
			s1,0.448,1,1v9C33,30.31,30.309,33.001,27,33.001z"/>
	</g>
</g>
</svg>
