<?xml version="1.0" encoding="iso-8859-1"?>
<!-- Generator: Adobe Illustrator 17.0.1, SVG Export Plug-In . SVG Version: 6.00 Build 0)  -->
<!DOCTYPE svg PUBLIC "-//W3C//DTD SVG 1.1//EN" "http://www.w3.org/Graphics/SVG/1.1/DTD/svg11.dtd">
<svg version="1.1" id="Layer_1" xmlns="http://www.w3.org/2000/svg" xmlns:xlink="http://www.w3.org/1999/xlink" x="0px" y="0px"
	 width="64px" height="64px" viewBox="0 0 64 64" style="enable-background:new 0 0 64 64;" xml:space="preserve">
<g id="icon-m-tab-close">
	<rect id="icon-m-tab-close_1_" style="opacity:0;fill:#FFFFFF;" width="64" height="64.002"/>
	<path style="fill:#FFFFFF;" d="M49,11H15c-2.2,0-4,1.799-4,4v34c0,2.199,1.8,4,4,4h34c2.2,0,4-1.801,4-4V15
		C53,12.799,51.2,11,49,11z M29.348,36.418l-5.657,5.658c-0.244,0.244-0.563,0.366-0.884,0.366c-0.32,0-0.64-0.122-0.885-0.366
		c-0.487-0.488-0.487-1.279,0-1.768l5.658-5.658c0.705-0.704,1.093-1.646,1.093-2.651c0-1.005-0.388-1.946-1.093-2.651l-5.658-5.657
		c-0.487-0.487-0.487-1.278,0-1.768c0.488-0.488,1.28-0.488,1.769,0l5.657,5.657c1.178,1.176,1.825,2.746,1.825,4.419
		C31.173,33.672,30.525,35.242,29.348,36.418z M36.418,34.65l5.658,5.658c0.488,0.488,0.488,1.279,0,1.768
		c-0.244,0.244-0.564,0.366-0.885,0.366c-0.318,0-0.639-0.122-0.883-0.366l-5.657-5.658c-2.437-2.436-2.437-6.401,0.001-8.838
		l5.656-5.657c0.488-0.488,1.279-0.488,1.768,0c0.488,0.489,0.488,1.279,0,1.768l-5.656,5.657
		C34.957,30.81,34.957,33.189,36.418,34.65z"/>
</g>
</svg>
